<svg width="384" height="384" viewBox="0 0 384 384" fill="none" xmlns="http://www.w3.org/2000/svg">
<path d="M193.918 0.00902694C87.884 -1.04897 1.06799 84.0491 0.00999124 190.083C-1.04901 296.116 84.05 382.932 190.083 383.99C296.116 385.05 382.932 299.951 383.991 193.917C383.994 193.62 383.996 193.323 383.998 193.026C384.562 87.3371 299.603 1.06503 193.918 0.00902694ZM267.781 286.879L259.31 273.101C251.178 260.073 251.178 243.55 259.31 230.522L274.67 206.014L324.364 287.106L267.781 286.879ZM256.487 208.385C253.889 212.451 251.404 216.63 248.807 220.809C228.93 253.788 206.341 291.059 152.13 291.059H151.113C134.579 291.382 118.278 287.121 104.016 278.748C90.502 270.534 79.762 258.456 73.183 244.074C65.764 227.745 62.171 209.937 62.68 192.009C62.57 173.889 66.425 155.964 73.974 139.491C80.6 124.869 91.357 112.503 104.92 103.915C118.865 95.465 134.925 91.1561 151.226 91.4911H152.017C179.311 90.9141 205.335 103.009 222.493 124.244L224.413 126.39L198.436 167.162L195.048 161.853C187.37 146.457 172.482 135.938 155.405 133.843H154.163C129.655 133.843 117.457 152.704 117.118 191.669C115.832 206.693 119.183 221.751 126.718 234.813C133.038 243.261 143.178 247.971 153.711 247.349C174.944 247.349 187.593 226.003 198.887 208.836L202.05 203.754L269.25 97.476H325.721L256.487 208.385Z" fill="#E51646"/>
</svg>
