<svg width="96" height="96" viewBox="0 0 96 96" fill="none" xmlns="http://www.w3.org/2000/svg">
<path d="M64.2715 63.9967C55.2402 72.9907 45.2261 79.2093 36.3875 82.0327C27.4742 84.88 20.156 84.1753 15.9879 80.0247C11.8199 75.8733 11.1124 68.586 13.9714 59.7095C16.8064 50.9075 23.0511 40.935 32.0824 31.9411C41.1138 22.9473 51.1279 16.7285 59.9665 13.9052C68.8801 11.0581 76.1978 11.7627 80.3664 15.9134C84.5344 20.0641 85.2413 27.352 82.3828 36.2283C79.5477 45.0303 73.3031 55.0028 64.2715 63.9967Z" stroke="#09C7E1" stroke-width="4"/>
<path d="M64.2715 31.9411C73.303 40.935 79.5476 50.9075 82.3827 59.7095C85.2419 68.586 84.5343 75.8733 80.3663 80.0247C76.1977 84.1753 68.88 84.88 59.9665 82.0327C51.1278 79.2093 41.1138 72.9907 32.0825 63.9966C23.0511 55.0028 16.8064 45.0303 13.9713 36.2283C11.1124 27.352 11.8199 20.0641 15.9879 15.9134C20.156 11.7627 27.4742 11.0581 36.3875 13.9051C45.2261 16.7284 55.2402 22.9473 64.2715 31.9411Z" stroke="#CB2F83" stroke-width="4"/>
<path d="M48.2083 25.3333C60.9805 25.3333 72.477 27.9876 80.7319 32.2151C89.0557 36.4785 93.7305 42.13 93.7305 48C93.7305 53.87 89.0557 59.5215 80.7319 63.7849C72.477 68.0127 60.9805 70.6667 48.2083 70.6667C35.4361 70.6667 23.9393 68.0127 15.6848 63.7849C7.3605 59.5215 2.68604 53.87 2.68604 48C2.68604 42.13 7.3605 36.4785 15.6848 32.2151C23.9393 27.9876 35.4361 25.3333 48.2083 25.3333Z" stroke="#763AF5" stroke-width="4"/>
<path d="M70.9695 48C70.9695 60.7193 68.3044 72.168 64.059 80.3887C59.7779 88.678 54.1028 93.3333 48.2084 93.3333C42.3139 93.3333 36.6388 88.678 32.3577 80.3887C28.1126 72.168 25.4473 60.7193 25.4473 48C25.4473 35.2808 28.1126 23.8317 32.3577 15.6115C36.6388 7.32173 42.3139 2.66667 48.2084 2.66667C54.1028 2.66667 59.7779 7.32173 64.059 15.6115C68.3044 23.8317 70.9695 35.2808 70.9695 48Z" stroke="#1277D4" stroke-width="4"/>
</svg>
